<?xml version="1.0" encoding="utf-8"?>
<!-- Generator: Adobe Illustrator 25.2.1, SVG Export Plug-In . SVG Version: 6.00 Build 0)  -->
<svg version="1.1" id="Layer_1" xmlns="http://www.w3.org/2000/svg" xmlns:xlink="http://www.w3.org/1999/xlink" x="0px" y="0px"
	 viewBox="0 0 612 792" style="enable-background:new 0 0 612 792;" xml:space="preserve">
<style type="text/css">
	.st0{fill:#323232;}
</style>
<path class="st0" d="M299.9,387.5c-1.1,0-2,0.9-2,2s0.9,2,2,2c1.1,0,2-0.9,2-2S301,387.5,299.9,387.5z M311.9,387.5
	c-1.1,0-2,0.9-2,2s0.9,2,2,2c1.1,0,2-0.9,2-2S313,387.5,311.9,387.5z M305.9,387.5c-1.1,0-2,0.9-2,2s0.9,2,2,2c1.1,0,2-0.9,2-2
	S307,387.5,305.9,387.5z"/>
<path class="st0" d="M299.9,393.5c-1.1,0-2,0.9-2,2s0.9,2,2,2c1.1,0,2-0.9,2-2S301,393.5,299.9,393.5z M311.9,393.5
	c-1.1,0-2,0.9-2,2s0.9,2,2,2c1.1,0,2-0.9,2-2S313,393.5,311.9,393.5z M305.9,393.5c-1.1,0-2,0.9-2,2s0.9,2,2,2c1.1,0,2-0.9,2-2
	S307,393.5,305.9,393.5z"/>
<path class="st0" d="M299.9,399.5c-1.1,0-2,0.9-2,2s0.9,2,2,2c1.1,0,2-0.9,2-2S301,399.5,299.9,399.5z M311.9,399.5
	c-1.1,0-2,0.9-2,2s0.9,2,2,2c1.1,0,2-0.9,2-2S313,399.5,311.9,399.5z M305.9,399.5c-1.1,0-2,0.9-2,2s0.9,2,2,2c1.1,0,2-0.9,2-2
	S307,399.5,305.9,399.5z"/>
</svg>
